<?xml version="1.0" standalone="no"?>
<!DOCTYPE svg PUBLIC "-//W3C//DTD SVG 20010904//EN"
 "http://www.w3.org/TR/2001/REC-SVG-20010904/DTD/svg10.dtd">
<svg version="1.0" xmlns="http://www.w3.org/2000/svg"
 width="512.000000pt" height="512.000000pt" viewBox="0 0 512.000000 512.000000"
 preserveAspectRatio="xMidYMid meet">
<metadata>
Created by potrace 1.11, written by Peter Selinger 2001-2013
</metadata>
<g transform="translate(0.000000,512.000000) scale(0.100000,-0.100000)"
fill="#000000" stroke="none">
<path d="M1533 5104 c-63 -31 -63 -33 -63 -544 0 -368 3 -466 14 -488 17 -35
14 -178 -5 -213 -8 -15 -86 -102 -174 -193 -88 -92 -169 -183 -180 -204 -19
-35 -20 -54 -18 -336 2 -250 5 -302 18 -322 31 -47 106 -40 125 11 6 16 8 132
5 293 -3 198 -1 272 8 288 7 12 83 95 170 185 194 202 206 223 213 364 l2 60
170 1 169 1 6 -78 c9 -135 23 -156 263 -400 62 -64 118 -127 122 -140 5 -13 8
-94 7 -179 -2 -85 -6 -321 -9 -525 -4 -203 -9 -487 -12 -630 -2 -143 -6 -370
-9 -505 -2 -135 -7 -421 -10 -636 -7 -380 -6 -393 13 -438 12 -25 26 -46 32
-46 7 0 10 -41 8 -131 -2 -112 -4 -132 -19 -140 -10 -5 -249 -9 -568 -9 -519
0 -551 1 -560 18 -5 10 -11 70 -12 133 -3 102 -1 118 15 135 10 10 25 33 33
51 14 34 14 34 -2 903 -2 129 -7 399 -10 600 -9 535 -9 528 -31 550 -34 33
-87 30 -110 -6 -14 -20 -17 -48 -17 -132 1 -136 12 -748 28 -1588 5 -240 4
-272 -10 -284 -42 -34 -49 -69 -47 -220 2 -80 7 -161 12 -181 13 -48 71 -106
120 -119 26 -7 233 -10 623 -8 l583 3 37 25 c20 14 47 45 60 70 22 41 24 59
26 202 2 147 1 160 -19 193 -12 19 -26 35 -32 35 -7 0 -8 117 -4 353 4 193 9
485 11 647 3 162 8 401 10 530 25 1356 25 1344 -3 1400 -13 26 -90 115 -187
215 -120 123 -168 179 -175 205 -14 51 -12 149 5 195 22 61 22 918 0 973 -28
68 -38 71 -330 71 -218 1 -265 -2 -292 -15z m486 -189 l0 -55 -199 0 -200 0 0
55 0 55 199 0 199 0 1 -55z m-2 -476 c0 -233 -2 -271 -15 -276 -12 -5 -288 -8
-364 -4 -17 1 -18 21 -18 276 l0 274 198 0 199 0 0 -270z"/>
<path d="M1650 3235 c-246 -55 -302 -105 -301 -272 1 -122 37 -179 120 -190
30 -4 56 3 118 31 105 47 170 60 268 53 77 -6 145 -26 226 -67 49 -25 95 -25
136 0 53 32 65 61 71 163 7 140 -23 188 -147 236 -151 58 -350 77 -491 46z
m318 -149 c44 -10 67 -17 120 -38 l52 -20 0 -50 c0 -27 -3 -47 -7 -45 -106 55
-225 81 -342 74 -53 -3 -105 -8 -116 -10 -35 -9 -132 -45 -155 -57 -20 -11
-21 -10 -18 41 l3 52 63 24 c35 13 87 28 115 33 52 9 241 7 285 -4z"/>
<path d="M1505 2510 c-46 -10 -73 -31 -89 -70 -11 -28 -13 -84 -9 -274 4 -265
10 -292 65 -326 31 -19 50 -20 343 -20 275 0 314 2 344 18 60 30 69 62 71 245
5 334 5 343 -13 371 -39 60 -42 60 -376 61 -169 0 -320 -2 -336 -5z m575 -149
c3 0 5 -43 3 -93 -1 -51 -3 -139 -3 -195 l-2 -103 -259 0 -259 0 -1 68 c0 37
-2 123 -3 192 -2 69 -2 127 -1 130 3 4 507 5 525 1z"/>
<path d="M2879 1668 c-21 -9 -48 -32 -59 -50 -19 -30 -21 -43 -15 -153 4 -66
8 -136 10 -155 2 -19 6 -87 10 -150 4 -63 9 -131 10 -150 1 -19 6 -82 9 -140
4 -58 9 -130 11 -160 14 -193 17 -240 20 -285 18 -309 21 -321 81 -374 28 -24
58 -41 81 -44 63 -10 736 -7 774 3 46 12 94 57 114 104 9 20 18 69 20 109 2
40 7 101 9 137 3 36 8 103 11 150 9 148 18 280 31 450 3 47 7 108 9 135 9 160
17 274 20 305 3 19 5 70 6 112 1 88 -14 124 -65 154 -29 17 -63 18 -540 19
-459 0 -513 -1 -547 -17z m1001 -188 c0 -30 -4 -60 -8 -65 -4 -7 -83 -10 -217
-10 -115 1 -222 -3 -236 -7 -35 -12 -53 -47 -44 -87 11 -51 30 -55 260 -57
254 -2 235 0 230 -24 -2 -11 -6 -55 -9 -97 -9 -129 -17 -245 -21 -303 -9 -148
-17 -268 -20 -300 -2 -19 -4 -59 -4 -88 l-1 -52 -392 2 -392 3 -2 35 c-1 34
-11 185 -19 300 -4 50 -10 143 -19 290 -2 30 -7 94 -11 143 -6 70 -4 87 6 88
8 1 34 2 59 4 25 1 55 3 67 4 29 1 63 38 63 67 0 13 -11 35 -24 50 -21 26 -29
28 -99 28 -41 1 -78 4 -81 7 -8 8 -19 107 -13 116 3 5 213 8 466 8 l461 0 0
-55z m-86 -1271 c-7 -61 6 -59 -380 -59 -339 0 -354 1 -364 19 -5 11 -10 31
-10 45 l0 26 379 0 378 0 -3 -31z"/>
<path d="M1504 978 c-36 -17 -47 -54 -28 -93 8 -18 23 -36 31 -40 9 -3 151 -5
316 -5 295 0 301 0 324 22 33 30 31 80 -3 107 -26 20 -38 21 -323 20 -182 0
-304 -4 -317 -11z"/>
<path d="M1496 739 c-14 -11 -28 -28 -31 -39 -8 -24 19 -77 42 -84 10 -3 131
-6 268 -7 363 -1 348 -2 373 21 29 27 29 80 1 106 -20 18 -42 19 -325 21 -287
1 -305 0 -328 -18z"/>
</g>
</svg>
